<?xml version="1.0" encoding="iso-8859-1"?>
<!-- Generator: Adobe Illustrator 19.0.0, SVG Export Plug-In . SVG Version: 6.00 Build 0)  -->
<svg version="1.1" id="Capa_1" xmlns="http://www.w3.org/2000/svg" xmlns:xlink="http://www.w3.org/1999/xlink" x="0px" y="0px"
	 viewBox="0 0 512.004 512.004" style="enable-background:new 0 0 512.004 512.004;" xml:space="preserve">
<g>
	<g>
		<g>
			<path d="M427.023,94.987c2.559,0,5.119-0.977,7.072-2.928l0.168-0.17c3.904-3.904,3.904-10.236,0-14.143
				c-3.904-3.904-10.236-3.904-14.143,0l-0.168,0.17c-3.906,3.904-3.906,10.236,0,14.143
				C421.903,94.01,424.464,94.987,427.023,94.987z"/>
			<path d="M473.055,430.629c-0.004-0.004-0.006-0.006-0.01-0.01l-28.272-28.27c-0.006-0.008-0.012-0.012-0.018-0.018l-28.268-28.27
				c-0.004-0.004-0.008-0.008-0.012-0.012L298.429,256.002l98.02-98.021l35.258,2.154c0.205,0.014,0.408,0.02,0.613,0.02
				c3.775,0,7.254-2.135,8.951-5.549l69.686-140.152c1.914-3.848,1.154-8.486-1.883-11.523c-3.037-3.039-7.676-3.797-11.523-1.883
				L357.398,70.731c-3.598,1.789-5.775,5.555-5.529,9.565l2.154,35.26l-98.021,98.021l-98.021-98.021l2.156-35.26
				c0.245-4.01-1.933-7.775-5.529-9.565L14.454,1.047C10.606-0.867,5.968-0.109,2.93,2.93c-3.038,3.037-3.796,7.676-1.883,11.523
				l69.685,140.152c1.696,3.414,5.174,5.549,8.951,5.549c0.203,0,0.407-0.006,0.612-0.02l35.259-2.154l98.013,98.012
				c0.01,0.01,0,0,0.009,0.01L2.931,466.647c-3.906,3.906-3.906,10.238,0,14.143l28.283,28.285c1.875,1.875,4.419,2.928,7.071,2.928
				s5.196-1.053,7.071-2.928L256,298.429l125.505,125.506c0.004,0.002,0.006,0.004,0.008,0.006l56.561,56.561
				c0.002,0.004,0.004,0.006,0.008,0.008l28.564,28.566c1.875,1.875,4.418,2.928,7.07,2.928c2.652,0,5.197-1.053,7.072-2.928
				l28.283-28.285c3.909-3.906,3.909-10.238,0.002-14.144L473.055,430.629z M479.79,32.213l-53.478,107.555l-29.357-1.793
				l-4.393-4.393l21.215-21.211c3.906-3.906,3.906-10.236,0-14.143c-3.904-3.904-10.234-3.904-14.141,0l-21.215,21.213l-4.393-4.393
				l-1.793-29.359L479.79,32.213z M364.278,133.584l14.141,14.141l-19.574,19.576l-10.354-17.93L364.278,133.584z M333.851,164.012
				l10.352,17.93l-13.643,13.643l-10.352-17.93L333.851,164.012z M98.225,112.371l21.215,21.211l-4.394,4.393l-29.357,1.793
				L32.213,32.211L139.769,85.69l-1.795,29.359l-4.393,4.391l-21.215-21.211c-3.906-3.906-10.237-3.906-14.143,0
				c-1.952,1.953-2.928,4.512-2.928,7.072C95.295,107.86,96.272,110.418,98.225,112.371z M153.16,167.303l-19.578-19.578
				l7.066-7.064c0.002-0.002,0.005-0.006,0.008-0.008c0.002-0.002,0.004-0.004,0.006-0.008l7.063-7.061l15.787,15.787
				L153.16,167.303z M181.442,195.587L167.8,181.944l10.352-17.932l13.644,13.643L181.442,195.587z M196.084,210.227l10.353-17.932
				l35.423,35.422l-14.142,14.143L196.084,210.227z M38.286,487.86l-14.142-14.141l19.798-19.799l10.352,17.932L38.286,487.86z
				 M68.935,457.209l-10.353-17.93l13.644-13.643l10.353,17.93L68.935,457.209z M97.219,428.926l-10.352-17.93l13.642-13.643
				l10.353,17.93L97.219,428.926z M125.504,400.643l-10.353-17.93l190.416-190.416c0.001,0,0,0,0.001-0.002l10.352,17.93
				L125.504,400.643z M386.501,400.643L270.144,284.285l14.142-14.14l112.566,112.566L386.501,400.643z M414.785,428.926
				l-13.643-13.643l10.352-17.932l13.643,13.643L414.785,428.926z M443.068,457.21l-13.643-13.643l10.354-17.932l13.643,13.645
				L443.068,457.21z M473.718,487.86l-16.008-16.01l10.352-17.93l19.799,19.799L473.718,487.86z"/>
			<path d="M91.884,77.746c-3.904-3.902-10.236-3.904-14.142,0c-1.953,1.953-2.93,4.512-2.93,7.072c0,2.559,0.977,5.117,2.93,7.07
				l0.166,0.168c1.953,1.951,4.512,2.928,7.072,2.928c2.559,0,5.117-0.977,7.07-2.928c1.953-1.953,2.93-4.512,2.93-7.072
				c0-2.559-0.977-5.117-2.93-7.07L91.884,77.746z"/>
		</g>
	</g>
</g>
<g>
</g>
<g>
</g>
<g>
</g>
<g>
</g>
<g>
</g>
<g>
</g>
<g>
</g>
<g>
</g>
<g>
</g>
<g>
</g>
<g>
</g>
<g>
</g>
<g>
</g>
<g>
</g>
<g>
</g>
</svg>
